<svg width="32" height="32" viewBox="0 0 32 32" fill="none" xmlns="http://www.w3.org/2000/svg">
<path d="M16.6968 9.49682C16.6968 9.11201 16.3848 8.80005 16 8.80005C15.6152 8.80005 15.3032 9.11201 15.3032 9.49682V15.3033H9.49676C9.11194 15.3033 8.79999 15.6152 8.79999 16C8.79999 16.3849 9.11194 16.6968 9.49676 16.6968H15.3032V22.5033C15.3032 22.8881 15.6152 23.2 16 23.2C16.3848 23.2 16.6968 22.8881 16.6968 22.5033V16.6968H22.5032C22.888 16.6968 23.2 16.3849 23.2 16C23.2 15.6152 22.888 15.3033 22.5032 15.3033H16.6968V9.49682Z" fill="#FBFBFB"/>
</svg>
