<svg width="30" height="30" viewBox="0 0 30 30" fill="none" xmlns="http://www.w3.org/2000/svg">
<path d="M8.31817 10.2272C8.31817 9.54942 8.86763 8.99996 9.54544 8.99996H20.4545C21.1323 8.99996 21.6818 9.54942 21.6818 10.2272C21.6818 10.905 21.1323 11.4545 20.4545 11.4545H9.54544C8.86763 11.4545 8.31817 10.905 8.31817 10.2272Z" fill="#FBFBFB"/>
<path d="M8.31817 15.6816C8.31817 15.0038 8.86763 14.4544 9.54544 14.4544H17.7273C18.4051 14.4544 18.9545 15.0038 18.9545 15.6816C18.9545 16.3594 18.4051 16.9089 17.7273 16.9089H9.54544C8.86763 16.9089 8.31817 16.3594 8.31817 15.6816Z" fill="#FBFBFB"/>
<path fill-rule="evenodd" clip-rule="evenodd" d="M6.81818 2.18164C5.40771 2.18164 4.05501 2.74195 3.05766 3.7393C2.06031 4.73665 1.5 6.08935 1.5 7.49982V18.4089C1.5 19.8194 2.06031 21.1721 3.05766 22.1694C4.05501 23.1668 5.40771 23.7271 6.81818 23.7271H8.31818V26.5907C8.31818 27.0329 8.55602 27.4409 8.94078 27.6587C9.32554 27.8766 9.79774 27.8706 10.1769 27.6431L16.7036 23.7271H23.1818C24.5923 23.7271 25.945 23.1668 26.9423 22.1694C27.9397 21.1721 28.5 19.8194 28.5 18.4089V7.49982C28.5 6.08935 27.9397 4.73665 26.9423 3.7393C25.945 2.74195 24.5923 2.18164 23.1818 2.18164H6.81818ZM4.79329 5.47493C5.33032 4.93789 6.0587 4.63619 6.81818 4.63619H23.1818C23.9413 4.63619 24.6697 4.93789 25.2067 5.47493C25.7438 6.01196 26.0455 6.74034 26.0455 7.49982V18.4089C26.0455 19.1684 25.7438 19.8968 25.2067 20.4338C24.6697 20.9708 23.9413 21.2725 23.1818 21.2725H16.3636C16.1412 21.2725 15.9229 21.333 15.7322 21.4474L10.7727 24.4231V22.4998C10.7727 21.822 10.2233 21.2725 9.54545 21.2725H6.81818C6.0587 21.2725 5.33032 20.9708 4.79329 20.4338C4.25625 19.8968 3.95455 19.1684 3.95455 18.4089V7.49982C3.95455 6.74034 4.25625 6.01196 4.79329 5.47493Z" fill="#FBFBFB"/>
</svg>
