<svg width="20" height="20" viewBox="0 0 20 20" fill="none" xmlns="http://www.w3.org/2000/svg">
<g clip-path="url(#clip0_254_10097)">
<path d="M4.74559 8.94574C4.74317 8.99027 4.7447 9.03563 4.75048 9.08141C4.80236 9.49237 5.17737 9.78203 5.58809 9.72839L5.60013 9.72681C6.01085 9.67317 6.30173 9.29654 6.24985 8.88557L6.10768 7.75952C6.0558 7.34856 5.68079 7.05889 5.27007 7.11253C4.85936 7.16618 4.56847 7.54281 4.62035 7.95377L4.74559 8.94574Z" fill="#FBFBFB" fill-opacity="0.5"/>
<path d="M6.5284 17.0793C6.11769 17.133 5.74268 16.8433 5.69079 16.4323L5.06776 11.4975C5.01587 11.0866 5.30676 10.7099 5.71748 10.6563C6.12819 10.6026 6.5032 10.8923 6.55509 11.3033L7.17812 16.2381C7.23001 16.649 6.93912 17.0257 6.5284 17.0793Z" fill="#FBFBFB" fill-opacity="0.5"/>
<path d="M8.43727 4.47697C8.84759 4.42031 9.22473 4.70719 9.27963 5.11775L9.44577 6.3601C9.50067 6.77066 9.21255 7.14942 8.80223 7.20608C8.39191 7.26274 8.01477 6.97585 7.95986 6.5653L7.79372 5.32294C7.73882 4.91239 8.02694 4.53363 8.43727 4.47697Z" fill="#FBFBFB" fill-opacity="0.5"/>
<path d="M9.97704 16.6289C9.56632 16.6826 9.19131 16.3929 9.13943 15.9819L8.28642 9.22556C8.23453 8.8146 8.52542 8.43796 8.93614 8.38432C9.34685 8.33067 9.72186 8.62034 9.77375 9.0313L10.6268 15.7877C10.6786 16.1986 10.3878 16.5753 9.97704 16.6289Z" fill="#FBFBFB" fill-opacity="0.5"/>
<path fill-rule="evenodd" clip-rule="evenodd" d="M3.04387 1.15609C1.6751 1.34034 0.712331 2.61829 0.893478 4.01048L2.68649 17.7906C2.86763 19.1827 4.1241 20.162 5.49287 19.9777L13.9162 18.8439C15.285 18.6597 16.2477 17.3817 16.0666 15.9895L14.2736 2.20945C14.0924 0.817256 12.836 -0.161976 11.4672 0.0222701L3.04387 1.15609ZM2.54574 3.78808C2.48536 3.32402 2.80628 2.89803 3.26254 2.83662L11.6858 1.70279C12.1421 1.64138 12.5609 1.96779 12.6213 2.43185L14.4143 16.2119C14.4747 16.676 14.1538 17.102 13.6975 17.1634L5.27421 18.2972C4.81795 18.3586 4.39913 18.0322 4.33875 17.5681L2.54574 3.78808Z" fill="#FBFBFB" fill-opacity="0.5"/>
<path d="M16.3842 0.579593C15.9888 0.450688 15.5672 0.664988 15.4425 1.05824C15.3178 1.4515 15.5373 1.8748 15.9327 2.0037L17.4521 2.49907C17.5687 2.53707 17.6416 2.65327 17.6246 2.7739L16.2408 12.6049C16.1832 13.0141 16.4693 13.3961 16.8799 13.4582C17.2904 13.5203 17.67 13.239 17.7275 12.8298L19.1114 2.9988C19.2303 2.1544 18.7196 1.34098 17.9036 1.07496L16.3842 0.579593Z" fill="#FBFBFB" fill-opacity="0.5"/>
</g>
<defs>
<clipPath id="clip0_254_10097">
<rect width="20" height="20" fill="white"/>
</clipPath>
</defs>
</svg>
