<svg width="20" height="20" viewBox="0 0 20 20" fill="none" xmlns="http://www.w3.org/2000/svg">
<g clip-path="url(#clip0_254_10110)">
<path fill-rule="evenodd" clip-rule="evenodd" d="M9.91782 -0.00012207C10.0245 -0.00012207 10.1109 0.086342 10.1109 0.193001V4.58659C10.1109 5.03476 10.289 5.46457 10.6059 5.78147C10.9228 6.09838 11.3526 6.27641 11.8008 6.27641H16.1943C16.301 6.27641 16.3874 6.36288 16.3874 6.46954V9.74017C16.3874 9.85114 16.2941 9.93895 16.1832 9.93686C16.1492 9.93621 16.1151 9.93589 16.0809 9.93589C13.1478 9.93589 10.77 12.3137 10.77 15.2468C10.77 16.4698 11.1835 17.5964 11.8782 18.4942C11.981 18.627 11.89 18.8294 11.7221 18.8294H4.07585C3.37158 18.8294 2.69616 18.5496 2.19817 18.0516C1.70018 17.5536 1.42041 16.8782 1.42041 16.1739V2.65532C1.42041 1.95105 1.70018 1.27563 2.19817 0.777639C2.69616 0.279647 3.37158 -0.00012207 4.07585 -0.00012207H9.91782ZM5.28287 14.2427C5.28287 13.8427 5.60711 13.5185 6.00708 13.5185H9.84936C10.2493 13.5185 10.5736 13.8427 10.5736 14.2427C10.5736 14.6427 10.2493 14.9669 9.84936 14.9669H6.00708C5.60711 14.9669 5.28287 14.6427 5.28287 14.2427ZM6.00708 9.65603C5.60711 9.65603 5.28287 9.98027 5.28287 10.3802C5.28287 10.7802 5.60711 11.1044 6.00708 11.1044H11.8008C12.2007 11.1044 12.525 10.7802 12.525 10.3802C12.525 9.98027 12.2007 9.65603 11.8008 9.65603H6.00708Z" fill="#FBFBFB"/>
<path d="M11.5192 0.00725509C11.5552 -0.00771642 11.5967 0.000522267 11.6244 0.028132L16.3591 4.75942C16.3867 4.78705 16.395 4.82864 16.3801 4.86478C16.3652 4.90092 16.3299 4.92449 16.2909 4.92449H12.5031C12.2264 4.92449 11.961 4.81465 11.7653 4.61909C11.5696 4.42351 11.4596 4.15823 11.4596 3.88157V0.0965431C11.4596 0.0574624 11.4831 0.0222266 11.5192 0.00725509Z" fill="#FBFBFB"/>
<path d="M15.6632 11.2426C16.0632 11.2426 16.3875 11.5668 16.3874 11.9668V11.9732C16.7776 11.9632 17.1635 12.0579 17.5049 12.2476C17.8515 12.4401 18.1391 12.7232 18.3371 13.0667C18.5369 13.4132 18.4179 13.8561 18.0714 14.0558C17.7249 14.2556 17.2821 14.1366 17.0823 13.7901C17.0155 13.6742 16.9184 13.5787 16.8015 13.5137C16.6846 13.4487 16.5522 13.4168 16.4185 13.4213C16.4104 13.4216 16.4022 13.4217 16.3941 13.4217H14.9323C14.7367 13.4217 14.5491 13.4994 14.4108 13.6377C14.2725 13.7761 14.1948 13.9637 14.1948 14.1593C14.1948 14.3549 14.2725 14.5425 14.4108 14.6808C14.5491 14.8191 14.7367 14.8968 14.9323 14.8968H16.3941C16.9739 14.8968 17.5299 15.1271 17.9398 15.5371C18.3498 15.947 18.5801 16.5031 18.5801 17.0828C18.5801 17.6626 18.3498 18.2186 17.9398 18.6285C17.5299 19.0385 16.9739 19.2688 16.3941 19.2688H16.3874V19.2757C16.3874 19.6756 16.0632 19.9999 15.6632 19.9999C15.2633 19.9999 14.939 19.6756 14.939 19.2757V19.2689C14.5488 19.2789 14.1629 19.1842 13.8216 18.9945C13.475 18.802 13.1873 18.5189 12.9893 18.1754C12.7896 17.8289 12.9085 17.386 13.2551 17.1863C13.6016 16.9865 14.0444 17.1055 14.2442 17.452C14.311 17.5679 14.408 17.6634 14.525 17.7284C14.6419 17.7934 14.7743 17.8253 14.908 17.8208C14.9161 17.8205 14.9242 17.8204 14.9323 17.8204H16.3941C16.5897 17.8204 16.7773 17.7427 16.9157 17.6044C17.054 17.466 17.1317 17.2784 17.1317 17.0828C17.1317 16.8872 17.054 16.6996 16.9157 16.5613C16.7773 16.423 16.5897 16.3453 16.3941 16.3453H14.9323C14.3526 16.3453 13.7966 16.115 13.3866 15.705C12.9767 15.295 12.7464 14.739 12.7464 14.1593C12.7464 13.5795 12.9767 13.0235 13.3866 12.6136C13.7966 12.2036 14.3526 11.9733 14.9323 11.9733H14.939V11.9668C14.939 11.5668 15.2633 11.2426 15.6632 11.2426Z" fill="#FBFBFB"/>
</g>
<defs>
<clipPath id="clip0_254_10110">
<rect width="20" height="20" fill="white"/>
</clipPath>
</defs>
</svg>
