<svg width="20" height="20" viewBox="0 0 20 20" fill="none" xmlns="http://www.w3.org/2000/svg">
<g clip-path="url(#clip0_254_10107)">
<path d="M14.9672 14.1503C15.3722 13.906 15.5025 13.3797 15.2582 12.9746C15.0139 12.5696 14.4876 12.4393 14.0826 12.6836C12.9844 13.346 11.4931 13.7022 9.95646 13.7022C8.41977 13.7022 6.92925 13.346 5.83236 12.6838C5.42744 12.4393 4.90102 12.5694 4.65657 12.9743C4.41211 13.3793 4.54219 13.9057 4.94711 14.1501C6.37153 15.0101 8.18678 15.415 9.95646 15.415C11.7262 15.415 13.5418 15.0101 14.9672 14.1503Z" fill="#FBFBFB" fill-opacity="0.5"/>
<path fill-rule="evenodd" clip-rule="evenodd" d="M9.99157 0C9.12405 0 8.28129 0.289192 7.59655 0.821842L1.50569 5.55842C1.03664 5.92318 0.657137 6.39032 0.396184 6.92414C0.13529 7.45785 -0.000218216 8.0441 2.63771e-07 8.63816V16.8598C2.63771e-07 17.6926 0.330842 18.4914 0.919746 19.0803C1.50865 19.6692 2.30737 20 3.14021 20H16.8429C17.6758 20 18.4745 19.6692 19.0634 19.0803C19.6523 18.4914 19.9831 17.6926 19.9831 16.8598V8.63816C19.9831 7.43427 19.4273 6.29748 18.4764 5.55846L12.3867 0.821942C12.1067 0.6041 11.8002 0.426925 11.4764 0.29365M11.4764 0.29365L10.0051 0.821892ZM9.99157 1.71284C9.50495 1.71284 9.03223 1.87507 8.64815 2.17386L2.55717 6.91053C2.29414 7.11508 2.08134 7.37703 1.935 7.67638C1.78867 7.97572 1.71268 8.30455 1.71284 8.63776V16.8598C1.71284 17.2384 1.86322 17.6014 2.13091 17.8691C2.39859 18.1368 2.76164 18.2872 3.14021 18.2872H16.8429C17.2215 18.2872 17.5845 18.1368 17.8522 17.8691C18.1199 17.6014 18.2703 17.2384 18.2703 16.8598V8.63816C18.2703 7.96265 17.9584 7.32508 17.4251 6.91077L11.335 2.17391C10.951 1.87512 10.4782 1.71284 9.99157 1.71284Z" fill="#FBFBFB" fill-opacity="0.5"/>
<path d="M9.99157 0C10.5043 0 11.0084 0.101031 11.4764 0.29365Z" fill="#FBFBFB" fill-opacity="0.5"/>
</g>
<defs>
<clipPath id="clip0_254_10107">
<rect width="20" height="20" fill="white"/>
</clipPath>
</defs>
</svg>
