<svg width="110" height="24" viewBox="0 0 110 24" fill="none" xmlns="http://www.w3.org/2000/svg">
<path d="M25.3041 10.0488C25.2411 8.86895 24.9979 7.74234 24.6087 6.70022C24.1365 5.44217 23.4525 4.30617 22.5968 3.35168C22.3135 3.03247 22.0102 2.73517 21.6896 2.45664C21.4035 2.20941 21.103 1.97783 20.791 1.76816C19.3544 0.798018 17.6688 0.237841 15.8601 0.237841C15.1704 0.237841 14.4979 0.319207 13.854 0.475681L13.6451 0.528882L8.7371 1.76816H8.62835C8.34217 1.76816 8.08747 1.60542 7.94724 1.3582C7.94724 1.3582 7.94724 1.3582 7.94724 1.35507C7.92148 1.31125 7.89859 1.26431 7.88142 1.21424L7.538 0.48194C7.538 0.48194 7.52942 0.463163 7.52369 0.453775C7.38633 0.18151 7.12304 0 6.81683 0C6.76531 0 6.7138 0.00625896 6.66515 0.0156474L6.56785 0.0438128L6.40186 0.0938845L0.68111 1.77129L0 1.97157V24L1.90024 23.443L6.40473 22.1254L12.3258 20.3917L13.3389 20.0944L15.6455 19.4216C15.6713 19.4122 15.697 19.4059 15.7228 19.3997C15.7743 19.3871 15.8315 19.384 15.8859 19.384C16.1921 19.384 16.4583 19.5718 16.5956 19.8472L16.7158 20.0975L16.8904 20.4699C16.8904 20.4699 16.9018 20.4919 16.9047 20.5012C17.0421 20.7735 17.3082 20.955 17.6116 20.955C17.6574 20.955 17.7003 20.9519 17.7432 20.9425C17.7489 20.9425 17.7547 20.9425 17.7575 20.9394C17.769 20.9394 17.7776 20.9362 17.789 20.9331C18.5674 20.7547 19.3086 20.4699 20.0069 20.0944C21.2861 19.4059 22.4051 18.4045 23.2808 17.184C23.3838 17.04 23.484 16.8929 23.5784 16.7459C24.2223 15.7444 24.7117 14.6178 25.0036 13.4004C25.1868 12.6525 25.2927 11.8733 25.3184 11.0658C25.3241 10.9438 25.3241 10.8186 25.3241 10.6934C25.3241 10.4775 25.3184 10.2616 25.3041 10.0488ZM17.7718 13.2721C17.7461 13.3159 17.7175 13.3566 17.6917 13.4004C17.0879 14.3049 16.2121 14.9777 15.1933 15.2562C15.1704 15.2625 15.1475 15.2687 15.1247 15.275C15.1218 15.2781 15.1161 15.2813 15.1103 15.2781H15.1046C15.056 15.2875 15.0045 15.2938 14.9529 15.2938C14.6868 15.2938 14.4493 15.153 14.3062 14.9339L14.3262 14.9777C14.3119 14.9527 14.2976 14.9276 14.2833 14.9026C14.2776 14.8963 14.2718 14.8869 14.269 14.8776C14.1202 14.6585 13.8855 14.5177 13.6165 14.5177C13.565 14.5177 13.5135 14.5239 13.4648 14.5333C13.4333 14.5396 13.399 14.549 13.3675 14.5615L12.1627 14.9151L7.81846 16.1888L6.40759 16.6019V6.93493L7.11159 6.72839L7.20031 6.70335L9.42107 6.05242C9.44683 6.04303 9.47258 6.03677 9.5012 6.03051C9.55272 6.01799 9.60709 6.01486 9.66146 6.01486C9.90758 6.01486 10.1279 6.13379 10.2768 6.32468C10.2768 6.32468 10.2768 6.32573 10.2768 6.32781C10.2968 6.35285 10.314 6.37789 10.3283 6.40292C10.4456 6.55627 10.6087 6.6658 10.7947 6.70335C10.8434 6.71274 10.892 6.719 10.9464 6.719C11.0008 6.719 11.0494 6.71274 11.0981 6.70335C11.224 6.67832 11.3385 6.61885 11.4358 6.53749C12.1799 5.92098 13.1042 5.55796 14.103 5.55796C15.1905 5.55796 16.1864 5.9867 16.9619 6.70335C17.8462 7.52015 18.4415 8.70935 18.5445 10.0519C18.556 10.1927 18.5617 10.3367 18.5617 10.4806C18.5617 11.5196 18.2698 12.4804 17.7747 13.2721H17.7718Z" fill="#FBFBFB"/>
<path d="M15.8601 0.240723C17.6686 0.240723 19.3542 0.80095 20.7907 1.771C21.1026 1.9806 21.4031 2.21234 21.6892 2.45947C22.0097 2.738 22.3131 3.03577 22.5964 3.35498C23.452 4.3094 24.1369 5.4447 24.6091 6.70264C24.9983 7.74465 25.2414 8.87159 25.3044 10.0513C25.3187 10.2641 25.3239 10.4808 25.3239 10.6968C25.3239 10.8218 25.3238 10.9469 25.3181 11.0688C25.2923 11.8762 25.1868 12.6559 25.0036 13.4038C24.7117 14.6209 24.2226 15.7473 23.5788 16.7485C23.4844 16.8956 23.384 17.0431 23.281 17.187C22.4053 18.4075 21.2858 19.4087 20.0066 20.0972C19.3083 20.4726 18.5671 20.7577 17.7888 20.936C17.7775 20.9391 17.7689 20.9419 17.7575 20.9419C17.7547 20.945 17.7486 20.9458 17.7429 20.9458C17.7002 20.9551 17.6575 20.9575 17.612 20.9575C17.3088 20.9575 17.0424 20.7765 16.905 20.5044C16.9023 20.4956 16.8916 20.4755 16.8904 20.4731L16.7155 20.1001L16.5954 19.8501C16.5536 19.7663 16.4984 19.6922 16.4353 19.6274L14.1589 14.7495C14.1991 14.7892 14.2367 14.8325 14.2693 14.8804C14.2721 14.8897 14.2772 14.8995 14.2829 14.9058C14.2972 14.9308 14.3116 14.9559 14.3259 14.981L14.3064 14.937C14.4495 15.1559 14.6868 15.2964 14.9529 15.2964C15.0042 15.2964 15.0557 15.2901 15.1042 15.2808H15.1101C15.1158 15.2839 15.1219 15.281 15.1247 15.2778C15.1475 15.2716 15.1703 15.2655 15.1931 15.2593C16.2118 14.9808 17.0883 14.3082 17.6921 13.4038C17.7179 13.36 17.7464 13.3187 17.7722 13.2749H17.7751C18.27 12.4833 18.5612 11.5226 18.5612 10.4839C18.5612 10.3401 18.5561 10.1959 18.5446 10.0552C18.4416 8.71263 17.8459 7.52334 16.9616 6.70654C16.1861 5.98995 15.1906 5.5611 14.1032 5.56104C13.1046 5.56104 12.1803 5.92412 11.4362 6.54053C11.339 6.62185 11.2242 6.68148 11.0984 6.70654C11.0497 6.71593 11.0004 6.72217 10.946 6.72217C10.8918 6.72214 10.8432 6.71591 10.7946 6.70654C10.6086 6.66898 10.4452 6.5591 10.3279 6.40576C10.3136 6.38082 10.297 6.35551 10.2771 6.33057V6.32764C10.2482 6.29061 10.2153 6.25735 10.1814 6.22607L7.40891 0.285645C7.45272 0.337489 7.4926 0.394032 7.52414 0.456543C7.52971 0.465715 7.53737 0.483908 7.53781 0.484863L7.88156 1.21729C7.89871 1.26723 7.9213 1.31419 7.94699 1.35791V1.36084C8.08722 1.60807 8.34245 1.771 8.62863 1.771H8.73703L13.6452 0.531738L13.8542 0.479004C14.4981 0.322549 15.1704 0.240728 15.8601 0.240723Z" fill="url(#paint0_linear_436_5717)"/>
<path d="M30.5374 17.0974C30.4341 17.0974 30.3851 17.0321 30.4014 16.9288L31.848 11.1541L33.0552 5.47725C33.0715 5.37393 33.1368 5.34131 33.2238 5.34131H37.5036C40.761 5.34131 43.1103 7.17378 43.1103 10.4309C43.1103 13.8566 40.5272 17.0974 36.2746 17.0974H30.5374ZM35.4752 11.1541L34.7519 14.4928H36.3997C38.8196 14.4928 39.5212 11.8555 39.5212 10.3276C39.5212 8.66368 38.6837 7.94592 37.3405 7.94592H36.2637L35.4752 11.1541Z" fill="#FBFBFB"/>
<path d="M50.477 5.34668H45.2401C45.1585 5.34668 45.0878 5.37931 45.0715 5.48262L43.7609 11.4096L42.4177 16.9342C42.4014 17.0375 42.4504 17.1028 42.5537 17.1028H46.0123C46.0939 17.1028 46.1646 17.0701 46.1809 16.9668L47.0021 13.204H48.0244L48.2583 13.7913L49.5525 16.9831C49.5852 17.0484 49.6559 17.1028 49.7374 17.1028H53.3647C53.468 17.1028 53.5332 17.0538 53.4843 16.9342L51.7387 12.856C53.7562 12.2035 54.8601 10.7081 54.8601 8.79411C54.8601 6.88008 53.5985 5.35211 50.477 5.35211V5.34668ZM49.5199 10.6483H47.5894L48.2419 7.89691H50.0202C50.9773 7.89691 51.2982 8.40261 51.2982 9.05512C51.2982 9.94688 50.7598 10.6483 49.5199 10.6483Z" fill="#FBFBFB"/>
<path d="M65.1963 5.34668H60.4597C60.3781 5.34668 60.3074 5.3793 60.2748 5.44999L53.7599 16.9179C53.7109 17.0212 53.7436 17.1028 53.8632 17.1028H57.5883C57.6699 17.1028 57.7243 17.0701 57.7569 16.9831L58.9315 14.683H62.7273L62.8633 16.9505C62.8633 17.0321 62.9449 17.1028 63.0319 17.1028H66.2893C66.3926 17.1028 66.4416 17.0538 66.4253 16.9505L65.3648 5.49893C65.3648 5.41737 65.2833 5.34668 65.1963 5.34668ZM60.3455 11.8609L62.2923 8.01654L62.5425 11.8609H60.3455Z" fill="#FBFBFB"/>
<path d="M78.0551 5.34675H69.5934C69.5118 5.34675 69.4411 5.37937 69.4248 5.48269L68.2012 11.2085L66.7764 16.9343C66.7601 17.0376 66.8091 17.1028 66.9124 17.1028H70.371C70.4526 17.1028 70.5233 17.0702 70.5396 16.9669L71.4478 12.7854H76.1681C76.2496 12.7854 76.3203 12.7527 76.3366 12.6494L76.875 10.3493C76.8913 10.246 76.8424 10.1808 76.7391 10.1808H72.0568L72.6278 7.94592H77.495C77.5765 7.94592 77.6472 7.91329 77.6635 7.80998L78.2019 5.50987C78.2182 5.40656 78.1693 5.34131 78.066 5.34131L78.0551 5.34675Z" fill="#FBFBFB"/>
<path d="M88.8862 5.34668H78.9616C78.8801 5.34668 78.8094 5.37931 78.793 5.48262L78.2547 7.78272C78.2384 7.88603 78.2873 7.95128 78.3906 7.95128H81.4632L80.7888 11.1595L79.3423 16.9342C79.326 17.0375 79.3586 17.1028 79.4619 17.1028H83.0021C83.0837 17.1028 83.1544 17.0701 83.1707 16.9668L84.3943 11.1595L85.1992 7.95128H88.3043C88.3859 7.95128 88.4566 7.91866 88.4729 7.81534L89.0113 5.51524C89.0276 5.41193 88.9786 5.34668 88.8753 5.34668H88.8862Z" fill="#FBFBFB"/>
<path d="M98.5559 5.34675H92.7915H89.806C89.7244 5.34675 89.6537 5.37937 89.6374 5.48269L88.3595 11.426L86.9836 16.9343C86.9673 17.0376 87.0162 17.1028 87.1196 17.1028H96C96.0816 17.1028 96.1523 17.0702 96.1686 16.9669L96.707 14.6505C96.7233 14.5471 96.6743 14.4819 96.571 14.4819H91.3178L91.7692 12.2634H96.4024C96.484 12.2634 96.5547 12.2307 96.571 12.1274L97.1094 9.82732C97.1257 9.72401 97.0768 9.65875 96.9734 9.65875H92.3728L92.8242 7.94592H97.9795C98.0611 7.94592 98.1318 7.91329 98.1481 7.80998L98.6864 5.50987C98.7028 5.40656 98.6538 5.34131 98.5505 5.34131L98.5559 5.34675Z" fill="#FBFBFB"/>
<path d="M108.062 5.49356L109.122 16.9451C109.139 17.0484 109.09 17.0974 108.986 17.0974H105.729C105.647 17.0974 105.56 17.0321 105.56 16.9451L105.424 14.6777H101.629L100.454 16.9778C100.421 17.0593 100.372 17.0974 100.285 17.0974H96.5602C96.4406 17.0974 96.408 17.0158 96.4569 16.9125L102.972 5.44462C103.004 5.37937 103.075 5.34131 103.157 5.34131H107.893C107.975 5.34131 108.062 5.40656 108.062 5.49356ZM104.989 8.0166L103.042 11.861H105.239L104.989 8.0166Z" fill="#FBFBFB"/>
<defs>
<linearGradient id="paint0_linear_436_5717" x1="20.461" y1="7.35656" x2="11.4867" y2="12.0628" gradientUnits="userSpaceOnUse">
<stop stop-color="#D9D9D9" stop-opacity="0"/>
<stop offset="1" stop-color="#737373"/>
</linearGradient>
</defs>
</svg>
